<svg width="782" height="1446" viewBox="0 0 782 1446" fill="none" xmlns="http://www.w3.org/2000/svg">
<path d="M670.449 1406.89L674.475 1414.22L679.539 1411.4L675.505 1404.15L671.148 1396.12L666.047 1398.9L670.449 1406.89ZM657.846 1383.4L662.937 1380.71C660.323 1375.82 657.656 1370.67 654.854 1365.27L649.726 1367.91C652.528 1373.32 655.232 1378.51 657.846 1383.4ZM683.048 1429.35C688.61 1439.08 691.874 1444.42 691.874 1444.42L696.831 1441.47C696.831 1441.47 693.567 1436.13 688.076 1426.48L683.048 1429.35ZM641.86 1352.37L647.06 1349.82C644.545 1344.77 641.969 1339.56 639.365 1334.21L634.166 1336.77C636.733 1342.07 639.31 1347.28 641.86 1352.37ZM626.536 1320.97L631.726 1318.5C629.266 1313.33 626.816 1308.09 624.34 1302.72L619.077 1305.11C621.59 1310.52 624.076 1315.81 626.536 1320.97ZM611.909 1289.24L617.207 1286.9C614.838 1281.67 612.515 1276.4 610.21 1270.97L604.876 1273.26C607.145 1278.65 609.54 1284.01 611.909 1289.24ZM597.979 1257.18L603.304 1254.96C601.107 1249.67 598.875 1244.33 596.696 1238.87L591.336 1241.04C593.559 1246.46 595.746 1251.84 597.979 1257.18ZM584.91 1224.8L590.342 1222.73C588.236 1217.36 586.221 1211.93 584.17 1206.44L578.746 1208.44C580.752 1213.96 582.813 1219.36 584.91 1224.8ZM572.755 1192.01L578.215 1190.06C576.281 1184.63 574.392 1179.17 572.549 1173.67L567.062 1175.49C568.942 1181.03 570.821 1186.58 572.755 1192.01ZM561.623 1158.92L567.136 1157.22C565.419 1151.7 563.667 1146.12 562.032 1140.61L556.483 1142.26C558.199 1147.78 559.871 1153.34 561.623 1158.92ZM551.741 1125.36L557.317 1123.83C555.772 1118.25 554.309 1112.67 552.891 1107.05L547.289 1108.45C548.743 1114.11 550.196 1119.77 551.741 1125.36ZM543.262 1091.43L548.927 1090.2C547.681 1084.53 546.471 1078.9 545.388 1073.24L539.696 1074.34C540.815 1080.04 542.016 1085.75 543.262 1091.43ZM536.556 1057.13L542.274 1056.16C541.327 1050.4 540.452 1044.73 539.703 1039.03L533.968 1039.79C534.752 1045.53 535.573 1051.32 536.556 1057.13ZM532.004 1022.39L537.757 1021.84C537.226 1016.04 536.767 1010.34 536.434 1004.61L530.628 1004.9C530.996 1010.68 531.437 1016.55 532.004 1022.39ZM530.12 987.394L535.935 987.385C535.865 981.52 535.994 975.719 536.258 970.181L530.481 969.864C530.198 975.564 530.06 981.447 530.12 987.394ZM531.745 952.359L537.485 953.002C538.066 947.213 538.927 941.5 539.887 936.004L534.194 934.954C533.215 940.613 532.381 946.454 531.745 952.359ZM462.201 824.238C463.189 826.048 464.258 827.866 465.292 829.639L470.249 826.682C467.381 821.844 464.695 816.863 462.254 811.54L457.028 813.969C458.653 817.422 460.359 820.884 462.201 824.238ZM475.241 844.273C478.787 848.944 482.678 853.492 486.768 857.733L490.942 853.692C486.996 849.633 483.249 845.268 479.847 840.779L475.241 844.273ZM450.377 797.543L455.873 795.64C454.001 790.384 452.33 784.823 450.912 779.209L445.31 780.604C446.745 786.426 448.443 792.115 450.377 797.543ZM499.819 869.766C504.381 873.486 509.134 876.981 514.169 880.179L517.288 875.271C512.488 872.183 507.843 868.824 503.515 865.215L499.819 869.766ZM441.591 763.413L447.309 762.444C446.37 756.969 445.622 751.27 445.054 745.427L439.301 745.979C439.895 751.949 440.67 757.775 441.591 763.413ZM537.89 917.822L543.491 919.314C544.957 913.714 546.623 908.178 548.459 902.952L542.995 900.981C541.104 906.324 539.339 912.013 537.89 917.822ZM438.224 728.402L444.012 728.266C443.869 722.68 443.835 716.86 443.964 711.059L438.169 710.905C438.03 716.787 438.009 722.725 438.224 728.402ZM529.537 888.899C534.728 891.457 540.181 893.88 545.752 895.988L547.779 890.537C542.406 888.494 537.142 886.217 532.151 883.724L529.537 888.899ZM439.062 693.397L444.821 693.877C445.266 688.196 445.838 682.489 446.5 676.71L440.77 675.986C440.062 681.801 439.517 687.635 439.062 693.397ZM549.156 884.637L554.556 886.807C556.71 881.329 558.926 876.024 561.168 870.846L555.869 868.524C553.545 873.692 551.319 879.078 549.156 884.637ZM562.534 901.37C568.09 902.898 573.882 904.166 579.747 905.153L580.689 899.449C574.987 898.481 569.358 897.233 564.001 895.77L562.534 901.37ZM443.173 658.617L448.921 659.549C449.818 653.881 450.797 648.223 451.902 642.538L446.218 641.407C445.104 647.173 444.116 652.913 443.173 658.617ZM563.096 852.596L568.331 855.117C570.873 849.851 573.441 844.712 576.153 839.755L571.027 836.999C568.341 842.083 565.728 847.258 563.096 852.596ZM597.254 907.446C603.012 907.926 608.916 908.216 614.848 908.263L614.85 902.488C609.081 902.461 603.34 902.189 597.709 901.683L597.254 907.446ZM449.787 624.3L455.452 625.594C456.711 620.01 458.096 614.4 459.481 608.79L453.835 607.333C452.44 613.025 451.091 618.681 449.787 624.3ZM579.572 821.805L584.553 824.75C587.509 819.822 590.546 814.904 593.647 810.158L588.82 806.943C585.665 811.806 582.583 816.76 579.572 821.805ZM632.438 907.678C638.299 907.262 644.152 906.557 649.897 905.715L648.985 899.997C643.367 900.812 637.641 901.491 631.943 901.926L632.438 907.678ZM458.371 590.425L463.963 591.999C465.501 586.489 467.13 580.908 468.877 575.382L463.34 573.691C461.584 579.299 459.955 584.88 458.371 590.425ZM468.625 557.078L474.144 558.932C475.926 553.452 477.791 547.981 479.736 542.52L474.308 540.595C472.281 546.046 470.408 551.598 468.625 557.078ZM598.908 792.676L603.58 796.161C607.041 791.5 610.611 786.975 614.234 782.704L609.798 778.958C606.085 783.301 602.424 787.897 598.908 792.676ZM667.215 902.458C673.016 901.127 678.683 899.534 684.159 897.794L682.362 892.258C677.011 893.972 671.481 895.458 665.843 896.808L667.215 902.458ZM480.108 524.167L485.527 526.174C487.544 520.804 489.607 515.398 491.669 509.993L486.26 507.904C484.152 513.346 482.09 518.751 480.108 524.167ZM621.564 765.881L625.718 769.923C629.784 765.747 633.948 761.788 638.121 758.118L634.293 753.744C629.985 757.52 625.684 761.587 621.564 765.881ZM700.683 891.76C706.18 889.486 711.542 886.949 716.598 884.21L713.885 879.101C708.966 881.733 703.775 884.208 698.451 886.42L700.683 891.76ZM492.729 491.762L498.083 493.968C500.263 488.617 502.489 483.231 504.705 477.926L499.36 475.639C497.098 480.98 494.873 486.366 492.729 491.762ZM648.041 742.8L651.415 747.533C656.129 744.176 660.887 741.154 665.634 738.585L663.012 733.405C657.911 736.18 652.936 739.299 648.041 742.8ZM728.42 870.273L731.704 875.078C736.716 871.633 741.423 867.986 745.614 864.154L741.741 859.815C737.695 863.458 733.206 867.007 728.42 870.273ZM506.316 459.555L511.616 461.878C513.913 456.583 516.292 451.297 518.707 446.057L513.416 443.653C511.037 448.939 508.659 454.224 506.316 459.555ZM681.203 731.53C686.708 729.545 692.138 728.212 697.422 727.439L696.592 721.73C690.938 722.5 685.118 723.993 679.233 726.056L681.203 731.53ZM520.706 427.898L525.987 430.383C528.447 425.107 530.943 419.877 533.43 414.728L528.24 412.171C525.662 417.392 523.166 422.622 520.706 427.898ZM753.322 847.623L757.894 851.262C761.745 846.44 765.045 841.388 767.613 836.249L762.432 833.611C760.028 838.398 756.973 843.108 753.322 847.623ZM713.934 727.262C719.502 727.966 724.768 729.501 729.697 731.821L732.112 726.581C726.677 723.995 720.769 722.301 714.632 721.529L713.934 727.262ZM535.846 396.536L541.036 399.093C543.613 393.872 546.227 388.697 548.831 383.604L543.65 380.965C541.001 386.095 538.423 391.315 535.846 396.536ZM768.139 817.996L773.804 819.29C775.145 813.345 775.673 807.302 775.378 801.245L769.617 801.507C769.851 807.021 769.379 812.575 768.139 817.996ZM766.854 784.966L772.457 783.571C770.959 777.576 769.098 771.868 766.973 766.665L761.612 768.831C763.602 773.771 765.41 779.225 766.854 784.966ZM743.318 741.035C747.194 744.631 750.823 748.941 753.934 753.808L758.792 750.633C755.357 745.356 751.485 740.646 747.231 736.757L743.318 741.035ZM551.608 365.495L556.744 368.17C559.438 363.004 562.169 357.885 564.809 352.837L559.683 350.081C556.998 355.165 554.303 360.33 551.608 365.495ZM567.993 334.777L573.074 337.568C575.886 332.458 578.653 327.384 581.456 322.355L576.42 319.528C573.581 324.511 570.769 329.621 567.993 334.777ZM584.884 304.325L589.955 307.198C592.849 302.097 595.733 297.078 598.608 292.141L593.582 289.232C590.661 294.205 587.777 299.224 584.884 304.325ZM602.27 274.22L607.251 277.165C610.272 272.039 613.228 267.111 616.139 262.219L611.203 259.238C608.256 264.085 605.291 269.094 602.27 274.22ZM620.208 244.347L625.098 247.363C628.2 242.246 631.283 237.292 634.211 232.609L629.285 229.547C626.392 234.276 623.355 239.194 620.208 244.347ZM638.605 214.776L643.486 217.873C646.805 212.659 649.924 207.75 652.834 203.229L647.962 200.05C645.007 204.607 641.888 209.515 638.605 214.776ZM657.508 185.471L662.335 188.686C666.171 182.914 669.407 178.061 671.953 174.198L667.172 170.947C664.59 174.764 661.309 179.653 657.508 185.471Z" fill="#3AAFA9"/>
<path d="M643.772 60.3697L713.524 68.7219C730.716 47.5048 745.11 35.2357 750.451 38.636C755.792 42.0362 750.682 60.3615 738.677 84.878L775.421 144.863L767.983 156.517L725.924 108.728C722.321 114.981 718.446 121.45 714.272 128.006C700.651 149.36 695.753 153.603 684.071 166.319L706.466 202.937L701.592 210.565L672.556 177.57C665.699 183.436 660.328 186.054 657.567 184.24C654.761 182.462 654.909 176.498 657.309 167.792L615.261 155.15L620.134 147.522L662.715 152.637C669.328 136.677 671.077 130.409 684.743 109.019C688.917 102.462 693.135 96.2409 697.279 90.2995L636.38 71.988L643.772 60.3697Z" fill="#3AAFA9"/>
</svg>
