<svg width="309" height="344" viewBox="0 0 309 344" fill="none" xmlns="http://www.w3.org/2000/svg">
<path d="M255.208 331.7L255.185 333.85L253.687 333.823L253.723 331.69L253.736 329.341L255.237 329.353L255.208 331.7ZM255.215 324.843L253.727 324.848C253.726 323.421 253.706 321.931 253.685 320.364L255.176 320.345C255.197 321.911 255.214 323.417 255.215 324.843ZM255.077 338.322C254.997 341.205 254.904 342.812 254.904 342.812L253.415 342.741C253.415 342.741 253.507 341.134 253.582 338.28L255.077 338.322ZM255.073 315.866L253.577 315.914C253.535 314.465 253.486 312.97 253.427 311.442L254.924 311.393C254.985 312.906 255.034 314.402 255.073 315.866ZM254.735 306.883L253.251 306.949C253.182 305.48 253.101 303.994 253.01 302.475L254.5 302.38C254.588 303.913 254.666 305.414 254.735 306.883ZM254.198 297.91L252.706 298.02C252.607 296.546 252.494 295.069 252.357 293.557L253.852 293.432C253.992 294.929 254.099 296.436 254.198 297.91ZM253.462 288.947L251.979 289.089C251.834 287.621 251.691 286.139 251.522 284.637L253.007 284.48C253.162 285.979 253.319 287.464 253.462 288.947ZM252.492 280.017L251.001 280.203C250.826 278.731 250.622 277.252 250.421 275.76L251.9 275.556C252.116 277.051 252.305 278.527 252.492 280.017ZM251.261 271.101L249.78 271.32C249.559 269.853 249.323 268.385 249.072 266.913L250.544 266.663C250.792 268.149 251.04 269.635 251.261 271.101ZM249.762 262.243L248.3 262.526C248.017 261.064 247.737 259.587 247.437 258.137L248.902 257.84C249.185 259.302 249.482 260.766 249.762 262.243ZM247.921 253.43L246.466 253.759C246.136 252.304 245.789 250.86 245.428 249.414L246.874 249.053C247.233 250.514 247.592 251.974 247.921 253.43ZM245.716 244.702L244.276 245.11C243.868 243.671 243.457 242.246 243.014 240.831L244.444 240.391C244.885 241.821 245.308 243.263 245.716 244.702ZM243.062 236.106L241.641 236.578C241.154 235.155 240.662 233.762 240.137 232.377L241.536 231.856C242.058 233.255 242.577 234.668 243.062 236.106ZM239.863 227.67L238.485 228.241C237.899 226.861 237.308 225.51 236.685 224.168L238.044 223.533C238.664 224.889 239.28 226.275 239.863 227.67ZM236.025 219.498L234.699 220.199C234 218.859 233.263 217.558 232.528 216.333L233.805 215.562C234.564 216.822 235.313 218.14 236.025 219.498ZM231.383 211.742L230.153 212.582C229.315 211.339 228.422 210.146 227.534 209.015L228.703 208.087C229.615 209.253 230.518 210.478 231.383 211.742ZM231.602 174.244C231.598 174.774 231.576 175.316 231.557 175.844L230.067 175.773C230.13 174.327 230.135 172.872 230.042 171.368L231.529 171.287C231.579 172.267 231.613 173.26 231.602 174.244ZM231.075 180.37C230.836 181.859 230.505 183.362 230.09 184.82L228.647 184.408C229.051 183.009 229.372 181.565 229.599 180.134L231.075 180.37ZM231.041 166.753L229.557 166.987C229.342 165.567 229.045 164.102 228.683 162.657L230.13 162.295C230.513 163.791 230.819 165.287 231.041 166.753ZM228.584 189.13C227.999 190.527 227.342 191.896 226.585 193.231L225.276 192.494C225.993 191.212 226.642 189.888 227.187 188.545L228.584 189.13ZM228.881 157.943L227.46 158.415C227.006 157.059 226.482 155.675 225.899 154.28L227.276 153.709C227.869 155.136 228.403 156.552 228.881 157.943ZM225.772 204.646L224.678 205.662C223.661 204.569 222.607 203.514 221.551 202.55L222.555 201.441C223.638 202.425 224.733 203.503 225.772 204.646ZM225.379 149.589L224.044 150.258C223.395 148.973 222.693 147.648 221.956 146.347L223.258 145.61C224.007 146.929 224.735 148.274 225.379 149.589ZM224.148 197.07C223.277 198.279 222.331 199.489 221.318 200.641L220.192 199.649C221.167 198.535 222.088 197.381 222.921 196.212L224.148 197.07ZM220.919 141.744L219.666 142.55C218.872 141.315 218.046 140.088 217.191 138.857L218.408 137.999C219.278 139.233 220.113 140.492 220.919 141.744ZM219.159 198.477L218.193 199.623C217.035 198.64 215.883 197.704 214.741 196.8L215.665 195.632C216.825 196.523 217.989 197.477 219.159 198.477ZM218.152 203.894C217.073 204.913 215.908 205.902 214.692 206.836L213.782 205.655C214.963 204.745 216.093 203.781 217.135 202.8L218.152 203.894ZM215.742 134.347L214.547 135.255C213.651 134.077 212.738 132.911 211.793 131.754L212.95 130.809C213.907 131.983 214.832 133.167 215.742 134.347ZM212.077 192.891L211.192 194.097C209.971 193.209 208.759 192.353 207.537 191.556L208.368 190.31C209.6 191.139 210.826 191.998 212.077 192.891ZM210.984 209.475C209.731 210.281 208.421 211.061 207.076 211.789L206.371 210.479C207.682 209.775 208.956 209.018 210.178 208.222L210.984 209.475ZM210.051 127.358L208.919 128.338C207.951 127.222 206.952 126.117 205.952 125.011L207.061 123.997C208.072 125.12 209.069 126.241 210.051 127.358ZM204.569 187.896L203.794 189.167C202.52 188.406 201.228 187.657 199.943 186.955L200.651 185.641C201.962 186.363 203.268 187.115 204.569 187.896ZM202.997 213.785C201.612 214.4 200.192 214.949 198.781 215.453L198.291 214.044C199.671 213.55 201.058 213.011 202.409 212.42L202.997 213.785ZM203.966 120.708L202.884 121.742C201.862 120.677 200.81 119.608 199.738 118.565L200.793 117.511C201.877 118.571 202.929 119.641 203.966 120.708ZM197.564 114.38L196.533 115.468C195.458 114.44 194.367 113.424 193.258 112.42L194.259 111.326C195.386 112.318 196.489 113.351 197.564 114.38ZM196.613 183.624L195.974 184.98C194.617 184.341 193.252 183.746 191.906 183.215L192.46 181.828C193.835 182.364 195.229 182.965 196.613 183.624ZM194.439 216.809C192.955 217.209 191.47 217.533 190.01 217.801L189.745 216.327C191.173 216.068 192.614 215.737 194.063 215.361L194.439 216.809ZM190.935 108.299L189.946 109.41C188.831 108.435 187.702 107.458 186.573 106.481L187.551 105.352C188.695 106.332 189.823 107.309 190.935 108.299ZM188.185 180.283L187.732 181.704C186.296 181.248 184.865 180.853 183.467 180.525L183.805 179.069C185.247 179.405 186.723 179.807 188.185 180.283ZM185.511 218.431C183.981 218.58 182.45 218.653 180.965 218.643L180.96 217.155C182.401 217.157 183.886 217.091 185.368 216.949L185.511 218.431ZM184.109 102.471L183.158 103.619C182.009 102.669 180.846 101.715 179.694 100.779L180.633 99.6134C181.799 100.552 182.963 101.505 184.109 102.471ZM179.34 178.248L179.148 179.731C177.665 179.54 176.213 179.429 174.818 179.421L174.784 177.928C176.284 177.94 177.798 178.046 179.34 178.248ZM176.572 216.91L176.41 218.399C174.848 218.223 173.332 217.965 171.91 217.602L172.263 216.149C173.629 216.486 175.084 216.748 176.572 216.91ZM177.087 96.8044L176.163 97.973C174.994 97.0491 173.808 96.1372 172.619 95.2401L173.531 94.0541C174.717 94.966 175.903 95.8778 177.087 96.8044ZM170.411 179.703C168.915 179.919 167.516 180.274 166.218 180.738L165.711 179.342C167.093 178.832 168.6 178.467 170.193 178.223L170.411 179.703ZM169.949 91.36L169.049 92.5633C167.845 91.6635 166.639 90.7784 165.445 89.9106L166.315 88.702C167.539 89.5751 168.745 90.4602 169.949 91.36ZM168.138 214.783L167.541 216.162C166.075 215.534 164.708 214.786 163.496 213.931L164.355 212.705C165.486 213.5 166.756 214.2 168.138 214.783ZM162.435 182.696C161.253 183.529 160.24 184.515 159.4 185.638L158.211 184.741C159.134 183.496 160.273 182.397 161.577 181.479L162.435 182.696ZM162.676 86.0734L161.806 87.282C160.582 86.4089 159.356 85.5506 158.142 84.7095L159 83.4836C160.229 84.3273 161.453 85.2003 162.676 86.0734ZM161.151 209.851L160.018 210.83C158.988 209.643 158.131 208.335 157.459 206.925L158.804 206.287C159.423 207.567 160.207 208.771 161.151 209.851ZM157.416 202.198L155.97 202.56C155.58 201.018 155.308 199.497 155.157 198.058L156.643 197.901C156.792 199.264 157.045 200.72 157.416 202.198ZM157.421 189.378C156.976 190.664 156.675 192.081 156.56 193.562L155.066 193.429C155.205 191.816 155.513 190.278 156.008 188.881L157.421 189.378ZM155.301 80.9352L154.457 82.1638C153.214 81.3175 151.967 80.4858 150.75 79.6595L151.582 78.4136C152.814 79.2426 154.057 80.0889 155.301 80.9352ZM147.823 75.9454L147.006 77.194C145.742 76.3744 144.493 75.5575 143.242 74.7552L144.044 73.504C145.298 74.2915 146.562 75.1111 147.823 75.9454ZM140.262 71.0773L139.458 72.3432C138.176 71.5357 136.908 70.7455 135.651 69.9726L136.441 68.704C137.712 69.4795 138.981 70.2697 140.262 71.0773ZM132.631 66.3481L131.856 67.6193C130.543 66.8212 129.268 66.0604 128.009 65.3022L128.77 64.0283C130.032 64.7718 131.318 65.55 132.631 66.3481ZM124.903 61.738L124.157 63.0145C122.826 62.2284 121.52 61.477 120.282 60.7682L121.031 59.477C122.266 60.2004 123.558 60.9492 124.903 61.738ZM117.106 57.2521L116.372 58.546C114.98 57.764 113.671 57.0273 112.457 56.3532L113.179 55.042C114.408 55.7187 115.717 56.4554 117.106 57.2521ZM109.227 52.888L108.52 54.2018C106.942 53.356 105.613 52.646 104.562 52.0772L105.255 50.7607C106.308 51.3148 107.652 52.0274 109.227 52.888Z" fill="white"/>
<path d="M92.7196 6.99998L69.3977 23.2119C59.1982 18.9219 51.7097 17.2861 50.4518 19.5103C49.1938 21.7345 54.5239 27.2882 63.501 33.7374L61.8446 62.0655L66.7305 64.8026L72.6179 39.8074C75.1009 41.3497 77.7222 42.9169 80.4671 44.4589C89.4169 49.4755 91.978 50.0563 98.5834 52.3657L97.585 69.652L100.785 71.4426L104.849 54.1854C108.42 54.9721 110.84 54.8849 111.479 53.7152C112.142 52.5497 110.948 50.4546 108.426 47.8106L121.03 35.3297L117.83 33.5391L103.596 43.4417C98.1819 39.015 96.3583 37.1157 87.3855 32.095C84.6406 30.553 81.9441 29.1388 79.3273 27.8103L97.5825 9.73288L92.7196 6.99998Z" fill="white"/>
</svg>
