<svg width="721" height="1041" viewBox="0 0 721 1041" fill="none" xmlns="http://www.w3.org/2000/svg">
<path d="M231.047 25.5227L234.545 20.6019L237.954 23.063L234.457 27.9245L230.663 33.3196L227.223 30.8882L231.047 25.5227ZM220.05 41.3226L223.49 43.6948C221.207 46.9852 218.866 50.4534 216.406 54.0996L212.937 51.7571C215.397 48.1109 217.768 44.613 220.05 41.3226ZM241.955 10.464C246.757 3.94248 249.543 0.385329 249.543 0.385329L252.863 2.93536C252.863 2.93536 250.077 6.4925 245.335 12.9547L241.955 10.464ZM206.001 62.2508L209.529 64.5341C207.306 67.9431 205.024 71.4706 202.712 75.0871L199.184 72.8039C201.466 69.217 203.748 65.6895 206.001 62.2508ZM192.396 83.5052L195.925 85.7292C193.731 89.2271 191.538 92.7843 189.315 96.4306L185.728 94.2659C187.98 90.59 190.203 87.0032 192.396 83.5052ZM179.266 105.056L182.883 107.191C180.749 110.748 178.645 114.335 176.54 118.041L172.894 115.935C174.968 112.26 177.132 108.613 179.266 105.056ZM166.61 126.904L170.257 128.95C168.242 132.566 166.196 136.212 164.181 139.948L160.505 137.931C162.55 134.226 164.565 130.55 166.61 126.904ZM154.547 149.048L158.283 151.005C156.327 154.681 154.43 158.416 152.503 162.181L148.768 160.283C150.665 156.488 152.591 152.783 154.547 149.048ZM143.107 171.577L146.872 173.445C145.035 177.18 143.227 180.945 141.449 184.74L137.654 182.96C139.461 179.136 141.269 175.312 143.107 171.577ZM132.378 194.403L136.203 196.093C134.513 199.918 132.794 203.771 131.164 207.595L127.31 205.935C129 202.111 130.659 198.257 132.378 194.403ZM122.509 217.674L126.393 219.246C124.822 223.129 123.311 227.013 121.829 230.926L117.916 229.443C119.427 225.5 120.938 221.557 122.509 217.674ZM113.619 241.33L117.591 242.695C116.228 246.667 114.895 250.61 113.65 254.582L109.648 253.307C110.922 249.305 112.255 245.303 113.619 241.33ZM105.973 265.402L110.005 266.588C108.849 270.65 107.753 274.652 106.746 278.684L102.684 277.645C103.721 273.584 104.788 269.493 105.973 265.402ZM99.8397 289.978L103.931 290.868C103.072 294.988 102.272 299.05 101.561 303.141L97.4104 302.429C98.151 298.308 98.9509 294.128 99.8397 289.978ZM95.6037 314.969L99.7839 315.473C99.2508 319.683 98.866 323.863 98.5997 327.865L94.4196 327.598C94.6859 323.477 95.0706 319.238 95.6037 314.969ZM93.8877 340.286L98.0678 340.317C98.0091 344.526 98.1579 348.706 98.3956 352.738L94.2155 353.005C93.9778 348.854 93.8587 344.585 93.8877 340.286ZM33.3324 426.4C34.192 425.185 35.1108 423.969 36.0001 422.784L39.3208 425.334C36.8606 428.565 34.519 431.914 32.3257 435.531L28.7679 433.337C30.2202 430.995 31.7318 428.653 33.3324 426.4ZM44.359 413.12C47.2935 410.067 50.4653 407.132 53.7556 404.435L56.4242 407.697C53.2524 410.275 50.1992 413.091 47.3833 416.026L44.359 413.12ZM22.6326 444.572L26.4276 446.41C24.6494 450.027 22.9897 453.881 21.5079 457.794L17.5944 456.311C19.1058 452.25 20.7951 448.307 22.6326 444.572ZM64.1307 396.906C67.7176 394.624 71.4231 392.52 75.3065 390.653L77.145 394.448C73.4395 396.255 69.823 398.271 66.414 400.494L64.1307 396.906ZM13.5049 468.347L17.5369 469.533C16.4109 473.387 15.4035 477.419 14.5147 481.569L10.4233 480.679C11.3418 476.44 12.3789 472.319 13.5049 468.347ZM95.4624 365.634L99.6128 365.042C100.206 369.192 100.948 373.313 101.838 377.226L97.7469 378.175C96.8273 374.172 96.0262 369.933 95.4624 365.634ZM8.20164 493.219L12.3522 493.812C11.7894 497.815 11.286 501.995 10.9012 506.175L6.72104 505.789C7.10587 501.549 7.57959 497.28 8.20164 493.219ZM87.0753 385.703C91.018 384.31 95.1387 383.036 99.3186 381.999L100.327 386.09C96.2954 387.098 92.323 388.283 88.5285 389.646L87.0753 385.703ZM5.92229 518.447L10.1025 518.596C9.95479 522.717 9.89601 526.867 9.89659 531.077L5.71651 531.106C5.68628 526.867 5.77462 522.627 5.92229 518.447ZM100.832 390.449L104.893 389.352C105.991 393.473 107.147 397.476 108.334 401.389L104.332 402.604C103.086 398.69 101.929 394.629 100.832 390.449ZM111.829 379.57C115.95 378.948 120.219 378.533 124.517 378.326L124.725 382.507C120.545 382.714 116.395 383.128 112.422 383.72L111.829 379.57ZM6.01473 543.795L10.2244 543.618C10.4028 547.768 10.6406 551.919 10.9673 556.099L6.78718 556.424C6.46054 552.185 6.22282 547.975 6.01473 543.795ZM108.217 414.67L112.189 413.307C113.583 417.31 115.007 421.223 116.549 425.018L112.636 426.559C111.123 422.675 109.67 418.732 108.217 414.67ZM137.295 378.18C141.475 378.329 145.744 378.626 150.013 379.101L149.539 383.251C145.389 382.776 141.238 382.479 137.147 382.36L137.295 378.18ZM7.94514 569.024L12.1251 568.58C12.5704 572.701 13.1046 576.851 13.6388 581.002L9.45877 581.564C8.92457 577.355 8.42003 573.174 7.94514 569.024ZM117.529 438.211L121.353 436.521C123.073 440.316 124.852 444.111 126.691 447.788L122.956 449.684C121.088 445.919 119.279 442.095 117.529 438.211ZM162.613 381.029C166.793 381.83 170.944 382.839 175.005 383.936L173.879 387.968C169.907 386.9 165.845 385.921 161.783 385.12L162.613 381.029ZM11.3282 594.105L15.4786 593.453C16.1314 597.545 16.8434 601.695 17.6444 605.816L13.5237 606.557C12.7227 602.376 12.0106 598.226 11.3282 594.105ZM15.9564 618.949L20.077 618.09C20.9077 622.181 21.7976 626.272 22.7469 630.364L18.6855 631.282C17.6769 627.191 16.787 623.04 15.9564 618.949ZM129.035 460.803L132.681 458.698C134.786 462.345 136.981 465.903 139.234 469.283L135.736 471.595C133.423 468.155 131.17 464.538 129.035 460.803ZM187.19 387.762C191.252 389.216 195.195 390.847 198.99 392.567L197.242 396.391C193.536 394.701 189.681 393.158 185.738 391.705L187.19 387.762ZM21.5035 643.586L25.5649 642.608C26.5734 646.64 27.6116 650.702 28.6497 654.763L24.5884 655.8C23.5206 651.709 22.4824 647.647 21.5035 643.586ZM143.119 482.001L146.44 479.452C149.019 482.803 151.688 486.005 154.386 488.999L151.273 491.815C148.486 488.732 145.729 485.441 143.119 482.001ZM210.375 398.32C214.14 400.425 217.787 402.708 221.197 405.11L218.826 408.549C215.505 406.236 211.977 404.012 208.33 401.966L210.375 398.32ZM27.9104 667.956L31.9421 666.83C33.0692 670.862 34.226 674.923 35.3827 678.926L31.351 680.111C30.1646 676.079 29.0079 672.017 27.9104 667.956ZM160.258 500.859L163.073 497.746C166.187 500.563 169.359 503.143 172.561 505.396L170.249 508.894C166.81 506.463 163.489 503.794 160.258 500.859ZM228.551 416.139L231.307 412.968C234.628 415.873 237.712 418.898 240.41 422.011L237.268 424.797C234.658 421.832 231.723 418.897 228.551 416.139ZM35.0287 692.267L39.0308 691.052C40.2469 695.054 41.5222 699.056 42.8271 703.029L38.8251 704.303C37.5498 700.301 36.2745 696.299 35.0287 692.267ZM183.175 511.801C186.97 513.699 190.765 515.123 194.501 516.131L193.434 520.163C189.432 519.125 185.37 517.553 181.308 515.566L183.175 511.801ZM42.7697 716.251L46.7717 714.918C48.1063 718.92 49.4706 722.893 50.8349 726.806L46.8921 728.199C45.4685 724.226 44.1043 720.254 42.7697 716.251ZM244.592 434.552L248.179 432.329C250.551 436.124 252.508 440.037 253.931 443.951L249.989 445.403C248.654 441.756 246.845 438.11 244.592 434.552ZM206.36 517.674C210.421 517.645 214.334 516.994 218.069 515.749L219.374 519.722C215.254 521.114 210.866 521.825 206.39 521.854L206.36 517.674ZM51.0738 740.088L55.0166 738.695C56.4401 742.668 57.8933 746.611 59.3465 750.495L55.4038 751.947C53.9209 748.033 52.4974 744.061 51.0738 740.088ZM252.807 457.114L256.987 456.669C257.462 461.057 257.344 465.445 256.633 469.773L252.512 469.091C253.134 465.148 253.252 461.116 252.807 457.114ZM249.163 480.741L253.077 482.224C251.506 486.404 249.698 490.346 247.742 493.904L244.066 491.887C245.903 488.508 247.652 484.743 249.163 480.741ZM228.623 510.295C231.706 508.043 234.67 505.256 237.308 502.025L240.54 504.724C237.635 508.221 234.463 511.275 231.084 513.705L228.623 510.295ZM59.8523 763.747L63.7654 762.265C65.2779 766.208 66.8199 770.122 68.3028 773.976L64.3897 775.517C62.8772 771.633 61.3648 767.69 59.8523 763.747ZM69.1051 787.228L72.9885 785.657C74.5899 789.57 76.1617 793.454 77.7631 797.308L73.9093 798.909C72.2783 795.084 70.6768 791.171 69.1051 787.228ZM78.7432 810.56L82.6266 808.93C84.2873 812.844 85.9481 816.698 87.6087 820.493L83.7549 822.153C82.0646 818.328 80.4039 814.474 78.7432 810.56ZM88.7668 833.686L92.5908 831.996C94.3405 835.94 96.0605 839.734 97.7508 843.5L93.9563 845.219C92.2364 841.483 90.5164 837.629 88.7668 833.686ZM99.2053 856.692L102.97 854.944C104.779 858.887 106.588 862.712 108.308 866.329L104.513 868.107C102.823 864.46 101.044 860.665 99.2053 856.692ZM110 879.522L113.764 877.714C115.722 881.746 117.56 885.541 119.28 889.039L115.515 890.906C113.766 887.378 111.927 883.583 110 879.522ZM121.179 902.202L124.914 900.305C127.198 904.782 129.125 908.548 130.638 911.542L126.932 913.469C125.39 910.504 123.433 906.709 121.179 902.202Z" fill="#3AAFA9"/>
<path d="M101.002 990.93L151.845 990.908C162.461 1007.63 171.801 1017.68 175.921 1015.69C180.042 1013.71 177.876 1000.1 171.262 981.453L202.622 941.494L198.234 932.481L164.056 963.22C161.98 958.417 159.726 953.436 157.265 948.366C149.228 931.852 146.056 928.383 138.702 918.243L157.821 893.847L154.944 887.947L131.349 909.17C126.901 904.367 123.254 902.025 121.12 903.092C118.956 904.129 118.571 908.428 119.58 914.891L88.3042 920.371L91.1806 926.271L122.22 926.245C125.661 938.282 126.402 942.937 134.468 959.48C136.93 964.55 139.45 969.383 141.941 974.008L96.6431 981.947L101.002 990.93Z" fill="#3AAFA9"/>
</svg>
