<svg width="20" height="20" viewBox="0 0 20 20" fill="none" xmlns="http://www.w3.org/2000/svg">
<g clip-path="url(#clip0_98_1869)">
<path fill-rule="evenodd" clip-rule="evenodd" d="M10 5.83337C7.69882 5.83337 5.83334 7.69885 5.83334 10C5.83334 12.3012 7.69882 14.1667 10 14.1667C12.3012 14.1667 14.1667 12.3012 14.1667 10C14.1667 7.69885 12.3012 5.83337 10 5.83337ZM7.50001 10C7.50001 11.3808 8.6193 12.5 10 12.5C11.3807 12.5 12.5 11.3808 12.5 10C12.5 8.61933 11.3807 7.50004 10 7.50004C8.6193 7.50004 7.50001 8.61933 7.50001 10Z" fill="white"/>
<path d="M15 4.16671C14.5398 4.16671 14.1667 4.5398 14.1667 5.00004C14.1667 5.46028 14.5398 5.83337 15 5.83337C15.4602 5.83337 15.8333 5.46028 15.8333 5.00004C15.8333 4.5398 15.4602 4.16671 15 4.16671Z" fill="white"/>
<path fill-rule="evenodd" clip-rule="evenodd" d="M4.16668 0.833374C2.32573 0.833374 0.833344 2.32576 0.833344 4.16671V15.8334C0.833344 17.6743 2.32573 19.1667 4.16668 19.1667H15.8333C17.6743 19.1667 19.1667 17.6743 19.1667 15.8334V4.16671C19.1667 2.32576 17.6743 0.833374 15.8333 0.833374H4.16668ZM15.8333 2.50004H4.16668C3.2462 2.50004 2.50001 3.24623 2.50001 4.16671V15.8334C2.50001 16.7538 3.2462 17.5 4.16668 17.5H15.8333C16.7538 17.5 17.5 16.7538 17.5 15.8334V4.16671C17.5 3.24623 16.7538 2.50004 15.8333 2.50004Z" fill="white"/>
</g>
<defs>
<clipPath id="clip0_98_1869">
<rect width="20" height="20" fill="white"/>
</clipPath>
</defs>
</svg>
